<?xml version="1.0" encoding="UTF-8"?>
<svg width="12px" height="18px" viewBox="0 0 12 18" version="1.1" xmlns="http://www.w3.org/2000/svg" xmlns:xlink="http://www.w3.org/1999/xlink">
    <!-- Generator: Sketch 49.3 (51167) - http://www.bohemiancoding.com/sketch -->
    <title>badges medal sign</title>
    <desc>Created with Sketch.</desc>
    <defs></defs>
    <g id="Design-V4" stroke="none" stroke-width="1" fill="none" fill-rule="evenodd">
        <g id="定价页" transform="translate(-947.000000, -979.000000)" fill="#F5A623">
            <g id="Group-16" transform="translate(877.000000, 974.000000)">
                <g id="Group-3">
                    <g id="Group-10">
                        <g id="Group-6" transform="translate(12.000000, 0.000000)">
                            <g id="badges-medal-sign" transform="translate(58.000000, 5.000000)">
                                <g id="icons">
                                    <path d="M0.375,6.75 L0.75,6.75 L0.75,0.75 L0.375,0.75 C0.168,0.75 0,0.582 0,0.375 C0,0.168 0.168,4.4408921e-16 0.375,4.4408921e-16 L1.125,4.4408921e-16 L10.875,4.4408921e-16 L11.625,4.4408921e-16 C11.832,4.4408921e-16 12,0.168 12,0.375 C12,0.582 11.832,0.75 11.625,0.75 L11.25,0.75 L11.25,6.75 L11.625,6.75 C11.832,6.75 12,6.918 12,7.125 C12,7.332 11.832,7.5 11.625,7.5 L10.875,7.5 L7.5,7.5 C7.5,8.13 7.10775,8.66925 6.5565,8.88975 L7.7535,11.2425 L10.92825,11.691 C11.07,11.71125 11.1885,11.811 11.23275,11.94825 C11.27625,12.08625 11.238,12.23625 11.133,12.33525 L8.84175,14.502 L9.3825,17.55975 C9.408,17.69925 9.351,17.84175 9.237,17.9265 C9.171,17.97525 9.09225,18 9.0135,18 C8.955,18 8.8965,17.9865 8.8425,17.9595 L6,16.509 L3.15675,17.95875 C3.0285,18.02475 2.877,18.0105 2.763,17.9265 C2.649,17.84175 2.59275,17.7 2.6175,17.55975 L3.159,14.50275 L0.86775,12.336 C0.76275,12.237 0.72375,12.087 0.768,11.949 C0.8115,11.81175 0.93075,11.71125 1.0725,11.69175 L4.24725,11.24325 L5.44425,8.8905 C4.89225,8.66925 4.5,8.13 4.5,7.5 L1.125,7.5 L0.375,7.5 C0.168,7.5 0,7.332 0,7.125 C0,6.918 0.168,6.75 0.375,6.75 Z M6,8.25 C5.586,8.25 5.25,7.914 5.25,7.5 L6.75,7.5 C6.75,7.914 6.414,8.25 6,8.25 L6,8.25 Z M10.5,6.75 L9,6.75 L9,0.75 L10.5,0.75 L10.5,6.75 L10.5,6.75 Z M1.5,0.75 L3,0.75 L3,6.75 L1.5,6.75 L1.5,0.75 L1.5,0.75 Z" id="Shape"></path>
                                </g>
                            </g>
                        </g>
                    </g>
                </g>
            </g>
        </g>
    </g>
</svg>